<?xml version="1.0" encoding="iso-8859-1"?>
<!-- Uploaded to: SVG Repo, www.svgrepo.com, Generator: SVG Repo Mixer Tools -->
<svg fill="#000000" height="800px" width="800px" version="1.1" id="Layer_1" xmlns="http://www.w3.org/2000/svg" xmlns:xlink="http://www.w3.org/1999/xlink" 
	 viewBox="0 0 512.005 512.005" xml:space="preserve">
<g>
	<g>
		<path d="M509.5,156.101L355.9,2.501c-3.302-3.294-8.627-3.337-11.972-0.085L237.901,105.157
			c-11.281,11.281-17.502,26.283-17.502,42.24s6.221,30.959,17.502,42.232l24.132,24.132l-84.156,84.164
			c-9.975-9.54-25.847-9.481-35.703,0.324L15.002,424.602C5.325,434.271,0,447.13,0,460.801c0,13.679,5.325,26.539,15.002,36.207
			c9.668,9.668,22.519,14.993,36.198,14.993c9.148,0,17.894-2.423,25.6-6.895v-86.545c0-4.71,3.814-8.533,8.533-8.533
			s8.533,3.823,8.533,8.533v71.979l17.067-17.067v-89.472c0-4.71,3.814-8.533,8.533-8.533S128,379.29,128,384.001v72.405
			l17.246-17.237V358.23c0-4.719,3.814-8.533,8.533-8.533c4.71,0,8.533,3.814,8.533,8.533v63.872l51.806-51.806
			c9.984-9.984,9.984-26.223,0-36.207l84.122-84.122l24.132,24.141c11.281,11.281,26.274,17.493,42.24,17.493
			c15.957,0,30.95-6.212,42.325-17.587l102.656-105.933C512.845,164.728,512.802,159.395,509.5,156.101z M268.066,135.331
			l84.471-84.489c3.337-3.328,8.738-3.328,12.075,0c3.328,3.336,3.328,8.738,0,12.075l-84.48,84.48
			c-1.664,1.664-3.849,2.5-6.033,2.5c-2.185,0-4.369-0.836-6.033-2.5C264.73,144.061,264.73,138.659,268.066,135.331z
			 M202.052,322.023l-12.066-12.066l84.113-84.13l12.075,12.075L202.052,322.023z M291.977,183.817
			c-1.664,1.673-3.849,2.5-6.033,2.5s-4.369-0.828-6.033-2.5c-3.337-3.328-3.337-8.73,0-12.066l96.777-96.759
			c3.328-3.337,8.73-3.337,12.066,0c3.328,3.328,3.328,8.73,0,12.066L291.977,183.817z M316.109,207.967
			c-1.664,1.664-3.849,2.5-6.033,2.5c-2.185,0-4.369-0.836-6.033-2.5c-3.336-3.337-3.336-8.738,0-12.066l96.777-96.777
			c3.328-3.336,8.73-3.336,12.066,0c3.328,3.328,3.328,8.73,0,12.066L316.109,207.967z M334.217,234.599
			c-2.185,0-4.369-0.836-6.033-2.5c-3.337-3.337-3.337-8.738,0-12.066l96.768-96.777c3.328-3.336,8.73-3.336,12.066,0
			c3.336,3.328,3.336,8.73,0,12.066l-96.768,96.777C338.586,233.763,336.401,234.599,334.217,234.599z M461.158,159.463
			l-84.71,84.702c-1.664,1.664-3.849,2.5-6.033,2.5c-2.185,0-4.369-0.836-6.033-2.5c-3.328-3.336-3.328-8.738,0-12.066l84.71-84.702
			c3.337-3.336,8.73-3.336,12.066,0C464.495,150.734,464.495,156.127,461.158,159.463z"/>
	</g>
</g>
</svg>